<?xml version="1.0" encoding="UTF-8" ?>
<!DOCTYPE svg PUBLIC "-//W3C//DTD SVG 1.1//EN" "http://www.w3.org/Graphics/SVG/1.1/DTD/svg11.dtd">
<svg width="355pt" height="152pt" viewBox="0 0 355 152" version="1.1" xmlns="http://www.w3.org/2000/svg">
<path fill="#ffffff" d=" M 0.00 0.00 L 161.42 0.00 C 133.53 2.38 105.51 6.46 79.12 16.16 C 57.77 23.16 37.23 33.36 20.25 48.26 C 10.03 57.09 2.82 69.16 0.00 82.37 L 0.00 0.00 Z" />
<path fill="#2833c9" d=" M 161.42 0.00 L 233.42 0.00 C 230.36 1.91 223.70 -1.14 221.87 2.02 C 232.57 2.98 243.27 0.27 253.90 2.20 C 278.89 5.74 304.14 11.92 325.96 25.04 C 334.87 30.95 344.14 37.78 348.66 47.78 C 347.34 52.83 350.93 57.82 350.03 62.98 C 351.10 77.09 342.23 89.27 333.07 99.06 C 320.79 111.26 305.25 119.44 289.63 126.54 C 255.67 140.91 218.71 147.16 182.00 148.03 C 143.01 148.82 101.84 143.86 68.01 122.99 C 62.18 119.71 57.60 114.75 52.52 110.47 C 41.36 102.35 38.47 86.62 43.10 74.09 C 44.42 70.90 44.98 66.99 47.67 64.66 C 47.45 65.82 47.25 66.99 47.10 68.16 C 55.38 58.18 63.70 47.82 74.74 40.73 C 115.53 14.24 164.90 4.12 212.93 2.87 C 215.38 2.27 220.92 -1.23 211.05 1.04 C 180.58 0.66 150.25 6.62 121.31 15.82 C 117.02 14.01 112.31 16.53 108.00 17.06 C 75.79 25.85 42.49 38.17 19.78 63.78 C 11.58 72.73 6.43 84.56 5.63 96.69 C 3.26 103.09 8.64 108.25 11.96 113.03 C 15.33 118.06 21.36 120.06 26.62 122.48 C 51.18 136.17 79.45 141.27 107.13 143.95 C 121.00 148.24 135.60 150.08 150.04 151.21 L 150.18 152.00 L 110.41 152.00 C 86.00 149.02 61.46 144.41 39.05 133.90 C 35.44 131.94 32.28 129.04 28.16 128.16 C 28.09 128.58 27.94 129.41 27.87 129.82 C 14.98 120.56 3.38 107.60 0.00 91.63 L 0.00 82.37 C 2.82 69.16 10.03 57.09 20.25 48.26 C 37.23 33.36 57.77 23.16 79.12 16.16 C 105.51 6.46 133.53 2.38 161.42 0.00 Z" />
<path fill="#ffffff" d=" M 233.42 0.00 L 355.00 0.00 L 355.00 152.00 L 203.59 152.00 C 230.54 148.82 257.56 143.85 282.90 133.86 C 300.90 126.94 318.47 118.01 332.80 104.91 C 335.20 102.63 338.88 101.21 340.08 97.93 C 346.32 90.14 352.35 81.39 353.38 71.17 C 355.22 63.06 352.19 54.96 348.66 47.78 C 344.14 37.78 334.87 30.95 325.96 25.04 C 304.14 11.92 278.89 5.74 253.90 2.20 C 243.27 0.27 232.57 2.98 221.87 2.02 C 223.70 -1.14 230.36 1.91 233.42 0.00 Z" />
<path fill="#ffffff" d=" M 121.31 15.82 C 150.25 6.62 180.58 0.66 211.05 1.04 C 220.92 -1.23 215.38 2.27 212.93 2.87 C 164.90 4.12 115.53 14.24 74.74 40.73 C 63.70 47.82 55.38 58.18 47.10 68.16 C 47.25 66.99 47.45 65.82 47.67 64.66 C 49.29 62.54 51.21 60.55 52.16 58.02 C 54.03 57.44 56.40 56.39 55.83 53.97 C 57.33 52.13 58.99 50.44 60.84 48.97 C 63.75 48.90 64.96 46.17 66.06 43.95 C 72.42 40.99 77.42 35.71 83.75 32.63 C 95.39 25.21 108.43 20.54 121.31 15.82 Z" />
<path fill="#1a2081" d=" M 108.00 17.06 C 112.31 16.53 117.02 14.01 121.31 15.82 C 108.43 20.54 95.39 25.21 83.75 32.63 C 77.42 35.71 72.42 40.99 66.06 43.95 C 63.61 44.66 62.54 47.26 60.84 48.97 C 58.99 50.44 57.33 52.13 55.83 53.97 C 54.38 55.05 51.87 55.76 52.16 58.02 C 51.21 60.55 49.29 62.54 47.67 64.66 C 44.98 66.99 44.42 70.90 43.10 74.09 C 38.47 86.62 41.36 102.35 52.52 110.47 C 57.60 114.75 62.18 119.71 68.01 122.99 C 101.84 143.86 143.01 148.82 182.00 148.03 C 218.71 147.16 255.67 140.91 289.63 126.54 C 305.25 119.44 320.79 111.26 333.07 99.06 C 342.23 89.27 351.10 77.09 350.03 62.98 C 350.93 57.82 347.34 52.83 348.66 47.78 C 352.19 54.96 355.22 63.06 353.38 71.17 C 353.44 68.68 352.27 68.58 351.82 70.90 C 346.56 91.01 330.25 105.74 313.07 116.10 C 298.86 125.45 282.56 130.67 266.81 136.73 C 247.59 142.26 227.91 146.09 208.00 148.04 C 193.08 150.14 177.95 147.98 163.00 149.78 C 137.77 149.07 112.71 144.43 88.85 136.22 C 86.48 135.47 86.82 136.43 88.34 137.64 C 94.49 140.08 101.20 140.97 107.13 143.95 C 79.45 141.27 51.18 136.17 26.62 122.48 C 21.36 120.06 15.33 118.06 11.96 113.03 C 8.64 108.25 3.26 103.09 5.63 96.69 C 6.43 84.56 11.58 72.73 19.78 63.78 C 42.49 38.17 75.79 25.85 108.00 17.06 Z" />
<path fill="#2833c9" d=" M 60.84 48.97 C 62.54 47.26 63.61 44.66 66.06 43.95 C 64.96 46.17 63.75 48.90 60.84 48.97 Z" />
<path fill="#030317" d=" M 74.99 49.01 C 82.65 49.03 90.31 48.84 97.97 49.04 L 98.01 49.99 C 90.35 49.97 82.68 50.16 75.03 49.96 L 74.99 49.01 Z" />
<path fill="#030317" d=" M 77.99 52.01 C 83.65 51.99 89.32 51.85 94.98 52.03 L 95.01 52.99 C 89.35 53.00 83.68 53.15 78.02 52.97 L 77.99 52.01 Z" />
<path fill="#2833c9" d=" M 52.16 58.02 C 51.87 55.76 54.38 55.05 55.83 53.97 C 56.40 56.39 54.03 57.44 52.16 58.02 Z" />
<path fill="#030317" d=" M 81.00 55.01 C 83.50 55.25 88.50 55.75 91.00 55.99 C 88.50 55.75 83.50 55.25 81.00 55.01 Z" />
<path fill="#030317" d=" M 83.23 58.06 C 84.92 58.05 88.32 58.03 90.02 58.02 C 88.49 69.02 86.34 80.12 83.80 90.89 C 82.14 90.92 78.84 90.98 77.19 91.01 C 79.06 80.00 81.32 69.07 83.23 58.06 Z" />
<path fill="#030317" d=" M 226.24 58.08 C 234.15 58.00 242.08 57.82 249.99 58.07 C 254.13 68.08 243.49 61.33 240.27 65.27 C 239.42 73.93 237.24 82.38 235.78 90.95 C 234.08 90.95 230.68 90.97 228.98 90.98 C 229.81 81.96 232.54 73.16 233.04 64.07 C 230.36 64.08 227.69 64.03 225.02 63.93 C 225.45 61.98 225.91 60.05 226.24 58.08 Z" />
<path fill="#030317" d=" M 254.22 58.06 C 255.92 58.05 259.30 58.04 261.00 58.03 C 259.29 69.03 257.63 80.14 254.82 90.91 C 253.12 90.92 249.72 90.96 248.01 90.97 C 250.12 80.01 252.27 69.05 254.22 58.06 Z" />
<path fill="#030317" d=" M 122.77 66.73 C 121.86 61.98 126.56 61.65 129.96 61.00 C 129.79 62.49 129.43 65.48 129.25 66.97 C 136.04 63.69 134.00 69.35 132.81 71.84 C 129.90 71.61 125.92 72.14 127.02 76.09 C 128.10 78.97 123.54 84.75 128.04 85.11 C 129.30 86.95 129.09 89.19 128.08 91.10 C 125.40 91.00 122.57 91.30 120.29 89.71 C 117.21 84.29 121.84 78.05 120.92 72.28 C 117.01 71.80 119.19 65.95 122.77 66.73 Z" />
<path fill="#030317" d=" M 94.16 67.04 C 99.45 64.78 100.40 67.38 100.12 71.08 C 103.21 67.47 110.13 64.85 113.07 69.95 C 115.99 76.85 111.81 83.93 111.87 90.95 C 109.30 91.06 106.73 91.07 104.17 90.99 C 104.78 87.05 105.80 83.19 106.36 79.25 C 106.75 76.53 108.33 72.89 104.97 71.91 C 97.87 73.48 99.32 83.99 97.42 89.33 C 97.02 92.87 92.48 90.64 89.96 90.98 C 91.16 82.97 93.08 75.07 94.16 67.04 Z" />
<path fill="#030317" d=" M 138.47 70.41 C 142.07 66.98 148.07 66.15 152.28 68.75 C 155.72 71.34 155.06 76.06 153.73 79.67 C 149.39 81.74 144.66 82.02 139.92 82.10 L 140.02 82.95 C 141.29 87.00 145.90 86.41 149.27 85.42 C 149.95 85.30 151.30 85.04 151.98 84.92 C 155.80 92.18 146.81 89.79 144.00 91.00 C 139.87 92.19 136.65 89.46 134.17 86.74 C 134.36 83.02 133.02 78.61 135.30 75.28 C 136.25 73.56 137.83 72.31 138.47 70.41 Z" />
<path fill="#030317" d=" M 161.23 67.09 L 165.90 67.03 C 163.69 76.45 166.95 71.39 168.47 69.43 C 170.44 68.17 172.57 66.71 175.04 66.97 C 174.14 69.25 175.27 74.07 172.01 74.05 C 169.75 73.92 169.31 76.64 167.44 77.48 C 164.65 81.37 165.34 86.52 163.78 90.91 C 162.07 90.93 158.66 90.96 156.96 90.97 C 158.67 83.07 159.20 74.92 161.23 67.09 Z" />
<path fill="#030317" d=" M 188.34 67.44 C 191.98 66.10 195.42 67.77 198.96 68.25 C 199.00 75.93 196.70 83.36 195.86 90.96 C 190.49 93.25 189.63 90.58 189.85 86.87 C 188.36 87.79 187.43 89.28 186.57 90.75 C 183.04 91.58 179.55 90.93 176.24 89.74 C 172.44 80.68 178.16 68.55 188.34 67.44 Z" />
<path fill="#030317" d=" M 205.00 74.00 C 207.22 69.47 212.63 68.38 217.08 67.14 C 219.97 66.65 224.80 68.50 222.00 72.87 C 218.20 72.38 213.66 72.91 211.28 76.25 C 210.31 78.99 209.95 81.88 210.05 84.79 C 213.02 86.14 216.04 85.67 219.07 84.93 C 219.24 87.72 219.22 90.66 215.76 90.78 C 212.09 91.36 207.24 91.38 204.25 88.76 C 202.82 83.95 201.83 78.33 205.00 74.00 Z" />
<path fill="#030317" d=" M 261.99 67.02 C 263.73 67.03 267.20 67.04 268.94 67.05 C 269.75 72.34 269.94 77.69 270.08 83.03 C 270.50 82.98 271.35 82.88 271.77 82.83 C 273.91 77.59 275.84 72.26 278.29 67.15 C 279.98 67.12 283.38 67.06 285.07 67.03 C 282.98 75.82 277.22 82.71 273.70 90.82 C 270.80 90.92 267.98 91.16 265.11 90.94 C 265.22 82.84 262.56 75.06 261.99 67.02 Z" />
<path fill="#030317" d=" M 300.34 67.45 C 303.64 66.43 306.77 67.79 309.96 68.24 C 309.81 75.90 307.68 83.35 306.88 90.96 C 301.49 93.25 300.63 90.59 300.85 86.87 C 297.83 88.31 298.07 93.75 292.96 91.02 C 289.85 91.57 287.67 89.08 286.31 86.66 C 284.51 77.80 290.88 67.92 300.34 67.45 Z" />
<path fill="#030317" d=" M 351.82 70.90 C 352.27 68.58 353.44 68.68 353.38 71.17 C 352.35 81.39 346.32 90.14 340.08 97.93 C 337.01 99.49 334.19 101.67 332.80 104.91 C 318.47 118.01 300.90 126.94 282.90 133.86 C 257.56 143.85 230.54 148.82 203.59 152.00 L 157.15 152.00 C 154.83 150.18 152.46 149.92 150.04 151.21 C 135.60 150.08 121.00 148.24 107.13 143.95 C 101.20 140.97 94.49 140.08 88.34 137.64 C 86.82 136.43 86.48 135.47 88.85 136.22 C 112.71 144.43 137.77 149.07 163.00 149.78 C 177.95 147.98 193.08 150.14 208.00 148.04 C 227.91 146.09 247.59 142.26 266.81 136.73 C 282.56 130.67 298.86 125.45 313.07 116.10 C 330.25 105.74 346.56 91.01 351.82 70.90 Z" />
<path fill="#1a2081" d=" M 104.97 71.91 C 108.33 72.89 106.75 76.53 106.36 79.25 C 106.08 76.77 105.64 74.32 104.97 71.91 Z" />
<path fill="#1a2081" d=" M 127.02 76.09 C 125.92 72.14 129.90 71.61 132.81 71.84 C 133.68 73.83 130.25 72.58 129.23 73.23 C 128.46 74.16 127.85 75.21 127.02 76.09 Z" />
<path fill="#2833c9" d=" M 140.95 76.97 C 140.90 73.91 144.54 72.33 147.14 71.88 C 148.45 74.06 146.01 75.41 144.87 76.96 C 143.56 77.05 142.25 77.06 140.95 76.97 Z" />
<path fill="#1a2081" d=" M 147.14 71.88 C 151.34 71.53 147.84 77.97 144.87 76.96 C 146.01 75.41 148.45 74.06 147.14 71.88 Z" />
<path fill="#1a2081" d=" M 186.44 72.26 C 187.74 68.37 194.61 73.61 191.30 73.66 C 187.50 71.27 185.51 76.14 183.00 78.16 C 182.07 75.05 185.54 74.69 186.44 72.26 Z" />
<path fill="#2833c9" d=" M 183.00 78.16 C 185.51 76.14 187.50 71.27 191.30 73.66 C 191.34 77.57 189.69 81.13 188.75 84.85 C 188.01 84.96 186.51 85.18 185.77 85.28 C 183.73 83.77 182.64 81.65 182.84 79.08 L 183.00 78.16 Z" />
<path fill="#2833c9" d=" M 298.25 73.26 C 299.48 72.96 300.73 72.87 302.01 73.00 C 302.84 77.18 300.73 80.85 299.69 84.72 C 297.89 85.01 295.36 87.05 294.14 84.77 C 293.01 80.58 293.99 75.19 298.25 73.26 Z" />
<path fill="#1a2081" d=" M 185.77 85.28 C 185.26 88.81 177.45 78.90 182.84 79.08 C 182.64 81.65 183.73 83.77 185.77 85.28 Z" />
<path fill="#1a2081" d=" M 140.02 82.95 C 143.03 84.16 145.79 85.58 149.27 85.42 C 145.90 86.41 141.29 87.00 140.02 82.95 Z" />
<path fill="#1a2081" d=" M 128.04 85.11 C 131.49 84.05 129.58 88.97 129.93 90.94 C 129.47 90.98 128.55 91.06 128.08 91.10 C 129.09 89.19 129.30 86.95 128.04 85.11 Z" />
<path fill="#1a2081" d=" M 219.07 84.93 L 220.04 85.03 C 222.27 90.54 219.63 91.68 215.76 90.78 C 219.22 90.66 219.24 87.72 219.07 84.93 Z" />
<path fill="#ffffff" d=" M 0.00 91.63 C 3.38 107.60 14.98 120.56 27.87 129.82 L 28.66 130.21 C 30.62 131.77 32.67 133.32 35.09 134.08 C 35.94 134.46 36.79 134.84 37.65 135.21 C 42.18 139.55 49.10 141.26 55.15 142.88 L 55.86 143.12 C 58.28 144.87 61.19 145.76 64.15 145.93 L 64.88 146.18 C 68.05 147.88 71.60 148.45 75.12 148.87 L 75.86 149.14 C 78.89 150.62 82.27 151.02 85.48 152.00 L 0.00 152.00 L 0.00 91.63 Z" />
<path fill="#1a2081" d=" M 249.01 94.02 C 250.73 94.13 254.00 93.05 252.99 95.98 C 251.27 95.87 247.99 96.95 249.01 94.02 Z" />
<path fill="#2833c9" d=" M 332.80 104.91 C 334.19 101.67 337.01 99.49 340.08 97.93 C 338.88 101.21 335.20 102.63 332.80 104.91 Z" />
<path fill="#030317" d=" M 244.99 100.00 C 248.09 101.17 255.57 97.91 257.01 101.00 C 253.89 99.82 246.43 103.09 244.99 100.00 Z" />
<path fill="#030317" d=" M 241.99 106.01 C 247.64 105.99 253.31 105.85 258.98 106.03 L 259.01 106.99 C 253.34 107.00 247.68 107.15 242.02 106.97 L 241.99 106.01 Z" />
<path fill="#1a2081" d=" M 28.16 128.16 C 32.28 129.04 35.44 131.94 39.05 133.90 C 61.46 144.41 86.00 149.02 110.41 152.00 L 90.47 152.00 C 85.85 150.12 80.81 149.42 75.86 149.14 L 75.12 148.87 C 71.86 147.46 68.36 146.74 64.88 146.18 L 64.15 145.93 C 61.77 144.12 58.84 143.21 55.86 143.12 L 55.15 142.88 C 49.96 139.28 43.63 137.29 37.65 135.21 C 36.79 134.84 35.94 134.46 35.09 134.08 C 33.75 131.69 31.43 130.22 28.66 130.21 L 27.87 129.82 C 27.94 129.41 28.09 128.58 28.16 128.16 Z" />
<path fill="#2833c9" d=" M 28.66 130.21 C 31.43 130.22 33.75 131.69 35.09 134.08 C 32.67 133.32 30.62 131.77 28.66 130.21 Z" />
<path fill="#2833c9" d=" M 37.65 135.21 C 43.63 137.29 49.96 139.28 55.15 142.88 C 49.10 141.26 42.18 139.55 37.65 135.21 Z" />
<path fill="#2833c9" d=" M 55.86 143.12 C 58.84 143.21 61.77 144.12 64.15 145.93 C 61.19 145.76 58.28 144.87 55.86 143.12 Z" />
<path fill="#2833c9" d=" M 64.88 146.18 C 68.36 146.74 71.86 147.46 75.12 148.87 C 71.60 148.45 68.05 147.88 64.88 146.18 Z" />
<path fill="#2833c9" d=" M 75.86 149.14 C 80.81 149.42 85.85 150.12 90.47 152.00 L 85.48 152.00 C 82.27 151.02 78.89 150.62 75.86 149.14 Z" />
<path fill="#1a2081" d=" M 150.04 151.21 C 152.46 149.92 154.83 150.18 157.15 152.00 L 150.18 152.00 L 150.04 151.21 Z" />
</svg>
