<?xml version="1.0" encoding="UTF-8" ?>
<!DOCTYPE svg PUBLIC "-//W3C//DTD SVG 1.1//EN" "http://www.w3.org/Graphics/SVG/1.1/DTD/svg11.dtd">
<svg width="78pt" height="78pt" viewBox="0 0 78 78" version="1.1" xmlns="http://www.w3.org/2000/svg">
<path fill="#ffffff" d=" M 0.00 0.00 L 78.00 0.00 L 78.00 78.00 L 0.00 78.00 L 0.00 0.00 Z" />
<path fill="#c6c6c6" d=" M 32.19 2.07 C 41.80 0.29 52.09 2.42 60.14 8.00 C 70.54 14.99 76.99 27.50 76.52 40.03 C 76.31 55.49 65.41 70.03 50.67 74.68 C 39.59 78.38 26.80 76.50 17.34 69.62 C 6.08 61.82 -0.18 47.49 1.78 33.92 C 3.79 18.25 16.58 4.74 32.19 2.07 Z" />
<path fill="#ffffff" d=" M 33.43 4.47 C 49.48 1.57 66.59 11.62 71.85 27.06 C 77.75 42.21 71.09 60.87 57.01 68.95 C 44.77 76.60 27.97 75.31 16.90 66.12 C 5.15 56.77 0.67 39.46 6.70 25.65 C 11.11 14.54 21.66 6.32 33.43 4.47 Z" />
<path fill="#bfbfbf" d=" M 34.30 7.35 C 50.30 4.60 66.96 16.14 70.19 32.01 C 74.23 47.92 63.64 65.47 47.88 69.71 C 32.85 74.49 15.37 65.95 9.53 51.39 C 3.53 37.95 8.60 20.91 20.80 12.75 C 24.81 9.94 29.47 8.10 34.30 7.35 Z" />
<path fill="#ffffff" d=" M 27.08 11.90 C 34.64 8.68 43.30 8.56 50.84 11.93 C 46.93 14.23 43.00 16.49 39.00 18.63 C 34.96 16.50 31.02 14.20 27.08 11.90 Z" />
<path fill="#ffffff" d=" M 16.51 21.81 C 19.07 18.75 21.88 15.12 25.91 14.18 C 30.50 15.97 34.24 19.51 38.97 20.98 C 43.75 19.35 47.81 16.17 52.26 13.83 C 55.91 15.77 59.09 18.44 61.48 21.84 C 54.15 26.48 46.54 30.65 39.00 34.96 C 31.46 30.65 23.83 26.49 16.51 21.81 Z" />
<path fill="#f1f1f1" d=" M 12.09 25.92 C 12.89 24.87 13.75 22.40 15.46 23.53 C 21.55 27.59 27.98 31.11 34.31 34.80 C 36.08 35.68 37.99 36.96 40.07 36.42 C 42.95 35.48 45.47 33.74 48.08 32.26 C 53.29 29.07 58.97 26.55 63.52 22.37 C 64.25 23.58 65.02 24.77 65.78 25.96 C 59.39 27.93 53.99 31.97 48.15 35.08 C 45.69 36.58 42.90 37.78 41.02 40.05 C 39.65 43.15 39.86 46.67 39.98 49.99 C 40.47 56.22 39.95 62.49 40.78 68.69 C 39.59 68.68 38.40 68.67 37.22 68.68 C 37.69 64.83 37.79 60.94 37.76 57.06 C 37.78 51.60 38.81 45.98 37.25 40.64 C 36.02 38.25 33.27 37.20 31.11 35.80 C 24.78 32.49 18.99 28.05 12.09 25.92 Z" />
<path fill="#ffffff" d=" M 12.97 27.98 C 20.66 32.22 28.33 36.52 35.77 41.19 C 35.72 49.72 36.03 58.26 35.57 66.78 C 31.49 66.23 27.59 64.88 24.03 62.83 C 23.72 57.79 24.59 52.61 23.47 47.67 C 19.47 44.75 14.91 42.68 10.75 39.99 C 10.71 35.87 11.38 31.79 12.97 27.98 Z" />
<path fill="#ffffff" d=" M 42.23 41.19 C 49.66 36.52 57.34 32.23 65.02 27.97 C 66.63 31.78 67.27 35.86 67.26 39.98 C 63.11 42.68 58.56 44.73 54.57 47.65 C 53.36 52.56 54.31 57.80 53.97 62.84 C 50.40 64.87 46.51 66.21 42.44 66.79 C 41.96 58.27 42.28 49.72 42.23 41.19 Z" />
<path fill="#ffffff" d=" M 9.43 42.13 C 13.41 44.51 17.83 46.30 21.36 49.36 C 21.90 53.90 21.49 58.50 21.49 63.06 C 14.91 57.95 10.64 50.34 9.43 42.13 Z" />
<path fill="#ffffff" d=" M 56.64 49.41 C 60.11 46.25 64.63 44.53 68.60 42.09 C 67.34 50.31 63.10 57.93 56.52 63.08 C 56.51 58.52 56.09 53.94 56.64 49.41 Z" />
</svg>
